<svg width="256" height="256" viewBox="0 0 256 256" fill="none" xmlns="http://www.w3.org/2000/svg">
<path d="M180.4 128C180.4 157.44 156.756 181.12 128 181.12C99.2438 181.12 75.5999 157.44 75.5999 128C75.5999 98.56 99.2438 74.88 128 74.88C156.756 74.88 180.4 98.56 180.4 128ZM128 0C113.302 0 101.8 12.16 101.8 26.24C101.8 40.32 113.302 52.48 128 52.48C142.698 52.48 154.2 40.32 154.2 26.24C154.2 12.16 142.698 0 128 0ZM128 202.88C113.302 202.88 101.8 215.04 101.8 229.12C101.8 243.2 113.302 256 128 256C142.698 256 154.2 243.84 154.2 229.76C154.2 215.68 142.698 202.88 128 202.88ZM16.1704 187.52C22.5607 200.32 38.5363 205.44 51.3169 198.4C64.0974 191.36 69.2096 175.36 62.1803 162.56C55.151 149.76 39.8144 144.64 27.0339 151.68C14.2534 158.72 9.14114 174.72 16.1704 187.52ZM193.82 92.8C200.849 105.6 216.186 110.72 228.966 103.68C241.747 96.64 246.859 80.64 239.83 67.84C232.8 55.04 217.464 50.56 204.683 57.6C191.903 64.64 186.79 80 193.82 92.8ZM20.0046 57.6C12.3363 70.4 16.8095 86.4 28.951 94.08C41.0925 101.76 57.7071 97.92 64.7364 85.12C71.7657 72.32 67.9315 56.32 55.7901 48.64C43.6486 40.96 27.0339 45.44 20.0046 57.6ZM191.264 162.56C183.595 175.36 188.068 191.36 200.21 199.04C212.351 206.72 228.966 202.88 235.995 190.08C243.664 177.28 239.191 161.28 227.049 153.6C214.908 145.92 198.932 150.4 191.264 162.56Z" fill="white"/>
</svg>
