<svg width="256" height="256" viewBox="0 0 256 256" fill="none" xmlns="http://www.w3.org/2000/svg">
<g clip-path="url(#clip0_105_18)">
<circle cx="128" cy="128" r="128" fill="black"/>
<path d="M50.887 217.492L102.683 212.391C113.342 211.341 122.945 208.552 131.492 204.025C140.105 199.417 147.362 193.395 153.264 185.958C159.165 178.522 163.445 169.955 166.101 160.258C168.831 150.554 169.643 140.081 168.536 128.838L167.878 122.158C166.763 110.843 163.924 100.729 159.361 91.8167C154.863 82.8245 148.958 75.2605 141.646 69.1254C134.4 62.9103 126.071 58.4236 116.659 55.665C107.313 52.8263 97.2372 51.9384 86.4328 53.0024L35.1837 58.0499L50.887 217.492ZM80.4366 92.8308C84.1192 90.3301 88.6559 92.5729 92.4621 93.975C101.866 97.4381 111.34 101.58 119.506 107.548C121.062 108.686 122.297 110.293 123.616 111.63C129.759 117.858 125.428 118.552 119.488 119.296C119.107 121.447 119.073 123.743 119.665 125.874C123.733 128.014 127.193 129.975 129.652 134.118C130.232 135.094 130.973 136.766 131.154 137.845C131.548 140.182 132.215 146.119 131.703 148.263C130.589 148.204 129.181 147.902 127.938 147.84C126.459 147.767 124.963 147.805 123.521 147.689C124.274 148.265 129.4 148.348 130.815 148.668C134.529 149.506 137.952 150.627 140.957 153.134C141.689 153.744 142.361 154.459 143.102 155.069C135.207 155.494 126.878 155.889 118.964 156.02C115.232 156.093 111.386 156.285 107.649 156.405L72.778 157.617L64.7883 157.895C63.2066 157.964 57.2269 158.392 55.9907 157.911C55.8255 157.706 55.6517 157.45 55.652 157.182C55.661 149.85 64.7648 149.744 69.4928 149.169C70.4061 147.107 71.0458 143.887 71.8277 141.621C74.9169 132.67 79.1803 123.808 86.974 118.178C87.264 115.779 86.9053 111.416 86.7533 108.913C86.0904 108.656 85.148 108.157 84.4997 107.971C78.711 106.312 75.8296 104.773 77.1403 98.0403C77.5456 95.9599 78.5392 94.0556 80.4366 92.8308ZM95.4433 109C95.0059 111.493 94.5364 114.426 94.5474 116.981C96.842 118.094 98.9415 118.796 101.334 119.674L110.218 122.943C110.622 123.069 110.667 123.152 111.04 123.069C111.534 122.257 111.809 118.546 111.852 117.463C107.647 115.047 103.148 113.058 98.8942 110.711C98.2738 110.369 95.9911 109.117 95.4433 109Z" fill="white"/>
<path d="M206.961 185.457L175.885 175.311L199.19 87.2966L239.988 100.616L206.961 185.457ZM204.183 215.218C202.423 220.609 199.011 224.388 193.946 226.556C188.942 228.743 183.168 228.769 176.626 226.633C170.266 224.556 165.63 221.099 162.718 216.26C159.867 211.441 159.302 206.397 161.022 201.127C162.763 195.796 166.105 192.128 171.05 190.123C176.075 188.076 181.889 188.131 188.492 190.287C194.913 192.383 199.549 195.74 202.399 200.357C205.329 204.933 205.924 209.887 204.183 215.218Z" fill="white"/>
</g>
<defs>
<clipPath id="clip0_105_18">
<rect width="256" height="256" fill="white" transform="matrix(-1 0 0 1 256 0)"/>
</clipPath>
</defs>
</svg>
